# xmcd
#
# Track frame offsets:
#	182
#	21682
#	32600
#	47732
#	68715
#	87865
#	103045
#	119860
#	134772
#	152582
#
# Disc length: 2310 seconds
#
# Revision: 0
# Processed by: cddbd v1.5.1PL0 Copyright (c) Steve Scherf et al.
# Submitted via: dBpowerAMP V4.0
#
DISCID=8e09040a
DTITLE=Alberto Plaza - Blanco y negro
DYEAR=1989
DGENRE=Ballad
TTITLE0=Yo te seguiré
TTITLE1=No te demores
TTITLE2=En las noches como esta
TTITLE3=María dijo
TTITLE4=Idiomas diferentes
TTITLE5=Blanco y negro (frente al temporal)
TTITLE6=El mismo romántico
TTITLE7=Aun niño
TTITLE8=Canción a Kiko
TTITLE9=Latinoamérica joven
EXTD=Chilean's Singer Alberto Plaza, baladist.\nAlbum year 1989.\nGilberto Garay C
EXTT0=
EXTT1=
EXTT2=
EXTT3=
EXTT4=
EXTT5=
EXTT6=
EXTT7=
EXTT8=
EXTT9=
PLAYORDER=
